<svg width="24" height="24" viewBox="0 0 24 24" fill="none" xmlns="http://www.w3.org/2000/svg">
    <path d="M2 11C2 11 5 11 8 13C10 11 14 11 16 13C19 11 22 11 22 11" stroke="#E3D5CA" stroke-width="1.2" stroke-linecap="round" stroke-opacity="0.8" />
    <path d="M12 15C11 15 10.5 16 10.5 17C10.5 18 11.5 19 12 19C12.5 19 13.5 18 13.5 17C13.5 16 13 15 12 15Z" stroke="#E3D5CA" stroke-width="0.8" stroke-opacity="0.4" />
    <path d="M7 8C7 8 8 7 12 7C16 7 17 8 17 8" stroke="#E3D5CA" stroke-width="0.5" stroke-opacity="0.2" />
</svg>
